<svg xmlns="http://www.w3.org/2000/svg" width="40" height="40" viewBox="0 0 24 24" fill="none" stroke="currentColor" stroke-width="2" stroke-linecap="round" stroke-linejoin="round" class="lucide lucide-building2 lucide-building-2 w-12 h-12 text-blue-600" data-fg-d3bl64="0.8:21.9251:/src/app/App.tsx:83:19:4199:49:e:Building2::::::DOEu" data-fgid-d3bl64=":r1k:"><path d="M6 22V4a2 2 0 0 1 2-2h8a2 2 0 0 1 2 2v18Z" /><path d="M6 12H4a2 2 0 0 0-2 2v6a2 2 0 0 0 2 2h2" /><path d="M18 9h2a2 2 0 0 1 2 2v9a2 2 0 0 1-2 2h-2" /><path d="M10 6h4" /><path d="M10 10h4" /><path d="M10 14h4" /><path d="M10 18h4" /></svg>